<svg width="16" height="18" viewBox="0 0 16 18" fill="none" xmlns="http://www.w3.org/2000/svg">
<path d="M1.09992 7.37873C5.39487 4.9599 8.25885 3.36525 9.69185 2.5948C13.7834 0.395003 14.6335 0.012875 15.1877 0.000122329C15.3095 -0.00251834 15.582 0.0365249 15.7586 0.221672C15.9076 0.378007 15.9486 0.589193 15.9683 0.737416C15.9879 0.885639 16.0123 1.22329 15.9929 1.48713C15.7712 4.49848 14.8118 11.8062 14.3237 15.179C14.1172 16.6062 13.7105 17.0847 13.3168 17.1315C12.4613 17.2333 11.8116 16.4006 10.9829 15.6985C9.68624 14.5997 8.95369 13.9158 7.69503 12.8436C6.24042 11.6045 7.18338 10.9235 8.01236 9.81055C8.22931 9.51928 11.999 5.0871 12.0719 4.68504C12.0811 4.63475 12.0895 4.44731 12.0034 4.34833C11.9172 4.24936 11.7901 4.28321 11.6983 4.31012C11.5683 4.34828 9.4968 6.11812 5.48389 9.61964C4.89591 10.1415 4.36333 10.3958 3.88616 10.3825C3.36012 10.3678 2.34822 9.99804 1.59598 9.68196C0.673328 9.29428 -0.0599784 9.0893 0.00387615 8.4309C0.0371355 8.08796 0.402482 7.73723 1.09992 7.37873Z" fill="#0088CC"/>
</svg>
