<svg width="16" height="18" viewBox="0 0 16 18" fill="none" xmlns="http://www.w3.org/2000/svg">
<path d="M16 1.97769C15.4 2.37323 14.8 2.50508 14.1 2.63692C14.8 2.10954 15.3 1.31846 15.5 0.263692C14.9 0.791077 14.2 1.05477 13.4 1.31846C12.8 0.527385 11.9 0 11 0C8.9 0 7.3 2.63692 7.8 5.27385C5.1 5.142 2.7 3.428 1 0.791077C0.1 2.76877 0.6 5.27385 2 6.59231C1.5 6.59231 1 6.32862 0.5 6.06492C0.5 8.04262 1.6 9.88846 3.1 10.4158C2.6 10.5477 2.1 10.6795 1.6 10.5477C2 12.2617 3.2 13.5802 4.7 13.5802C3.5 14.7668 1.7 15.426 0 15.1623C1.5 16.3489 3.2 17.14 5 17.14C11.1 17.14 14.5 10.4158 14.3 4.21908C15 3.69169 15.6 2.90062 16 1.97769Z" fill="#1DA1F2"/>
</svg>
