<svg width="16" height="18" viewBox="0 0 16 18" fill="none" xmlns="http://www.w3.org/2000/svg">
<g clip-path="url(#clip0_703_3)">
<path d="M4.74407 1.77282C4.52922 1.73968 4.52007 1.73625 4.62179 1.72139C4.81607 1.69168 5.27322 1.73168 5.58865 1.80596C6.32465 1.97968 6.99436 2.42539 7.70979 3.21739L7.8995 3.42768L8.1715 3.38425C9.31664 3.20139 10.4801 3.34653 11.4549 3.79339C11.7235 3.91682 12.1464 4.16139 12.1978 4.22425C12.2161 4.24482 12.2469 4.37282 12.2664 4.5111C12.3395 4.98882 12.3041 5.35339 12.1566 5.62653C12.0766 5.7751 12.0721 5.82196 12.1258 5.94996C12.1515 6.00268 12.1914 6.04713 12.2411 6.07824C12.2908 6.10936 12.3483 6.12589 12.4069 6.12596C12.6492 6.12596 12.9098 5.73739 13.0298 5.19568L13.0778 4.97968L13.1726 5.0871C13.6949 5.67453 14.1041 6.47453 14.1738 7.04368L14.1921 7.19225L14.1052 7.05739C13.979 6.85084 13.8093 6.6742 13.6081 6.53968C13.2584 6.30996 12.8881 6.2311 11.9098 6.17968C11.0252 6.13396 10.5246 6.05853 10.0286 5.89739C9.18407 5.6231 8.75893 5.25968 7.7555 3.95225C7.30979 3.37053 7.0355 3.04939 6.76122 2.7911C6.13836 2.20253 5.52693 1.89396 4.74407 1.77396V1.77282Z" fill="#FF007A"/>
<path d="M12.403 3.06965C12.4247 2.68108 12.4773 2.42394 12.5847 2.18965C12.6082 2.13044 12.6377 2.07377 12.6727 2.02051C12.6784 2.02051 12.6601 2.08908 12.6315 2.17251C12.5538 2.40108 12.5401 2.71194 12.595 3.07422C12.6635 3.53365 12.7013 3.59994 13.1893 4.09594C13.419 4.32908 13.6853 4.62165 13.7824 4.74851L13.9584 4.97708L13.7824 4.81365C13.5675 4.61365 13.0738 4.22279 12.9641 4.16679C12.891 4.13022 12.8795 4.13022 12.835 4.17479C12.7927 4.21594 12.7847 4.27765 12.7778 4.57022C12.7698 5.02622 12.707 5.31879 12.5561 5.61022C12.475 5.77022 12.4624 5.73594 12.5355 5.55651C12.5904 5.42394 12.5961 5.36451 12.5961 4.92336C12.5961 4.03765 12.4887 3.82394 11.8681 3.46051C11.6809 3.35239 11.4887 3.25323 11.2921 3.16336C11.1952 3.12443 11.1013 3.07859 11.011 3.02622C11.0281 3.00908 11.6338 3.18508 11.8773 3.27765C12.2407 3.41708 12.3001 3.43422 12.3447 3.41822C12.3733 3.40679 12.3881 3.32108 12.4018 3.06965H12.403ZM5.16526 4.58622C4.72983 3.98965 4.45897 3.07422 4.5184 2.38965L4.53554 2.17822L4.63497 2.19536C4.8224 2.22965 5.14354 2.34851 5.2944 2.43994C5.70697 2.68908 5.8864 3.01708 6.06811 3.86051C6.12183 4.10736 6.19154 4.38622 6.22354 4.48222C6.27497 4.63422 6.47154 4.98965 6.6304 5.22051C6.74468 5.38736 6.66926 5.46622 6.41554 5.44336C6.02811 5.40908 5.50354 5.04908 5.16526 4.58622V4.58622ZM11.8727 9.02851C9.83383 8.21365 9.11611 7.50508 9.11611 6.31079C9.11611 6.13479 9.12183 5.99079 9.12983 5.99079C9.13668 5.99079 9.21554 6.04794 9.30468 6.11994C9.7184 6.44908 10.1813 6.58965 11.4635 6.77594C12.2178 6.88565 12.6407 6.97365 13.0327 7.10279C14.2784 7.51308 15.0475 8.34508 15.2315 9.47994C15.2841 9.80908 15.2544 10.4262 15.1664 10.7519C15.0978 11.0091 14.8898 11.4719 14.835 11.4902C14.819 11.4959 14.8041 11.4376 14.8007 11.3576C14.7801 10.9325 14.563 10.5176 14.1995 10.2068C13.7858 9.85365 13.2304 9.57251 11.8727 9.02965V9.02851ZM10.4418 9.36793C10.4179 9.2232 10.3851 9.08007 10.3435 8.93936L10.291 8.78508L10.3881 8.89365C10.5218 9.04222 10.6281 9.23308 10.7173 9.48794C10.7858 9.68222 10.7927 9.73936 10.7927 10.0548C10.7927 10.3645 10.7835 10.4296 10.7195 10.6034C10.6317 10.861 10.4845 11.0943 10.2898 11.2845C9.91726 11.6616 9.4384 11.8696 8.74697 11.9565C8.62697 11.9714 8.27726 11.9965 7.96983 12.0125C7.19383 12.0525 6.68297 12.1359 6.22468 12.2959C6.18314 12.3142 6.13859 12.3246 6.09326 12.3268C6.07497 12.3085 6.38811 12.1234 6.64526 11.9999C7.00868 11.8251 7.37097 11.7302 8.1824 11.5965C8.5824 11.5302 8.99725 11.4491 9.1024 11.4171C10.0944 11.1154 10.6053 10.3348 10.4418 9.36793V9.36793Z" fill="#FF007A"/>
<path d="M11.3761 11.0183C11.1052 10.44 11.0423 9.88116 11.1909 9.36001C11.2069 9.30287 11.2321 9.2583 11.2481 9.2583C11.2629 9.2583 11.3281 9.29259 11.3898 9.33487C11.5155 9.4183 11.7646 9.55887 12.4321 9.92002C13.2641 10.3714 13.7395 10.72 14.0618 11.12C14.3441 11.4686 14.5189 11.8674 14.6035 12.352C14.6515 12.6263 14.6229 13.2892 14.5521 13.5657C14.3281 14.4389 13.8092 15.1246 13.0663 15.5246C12.9578 15.5829 12.8606 15.6309 12.8492 15.6309C12.8389 15.6309 12.8789 15.5314 12.9372 15.4092C13.1875 14.8903 13.2161 14.3863 13.0275 13.8252C12.9109 13.4812 12.6755 13.0617 12.2001 12.352C11.6469 11.5292 11.5121 11.3086 11.3761 11.0183V11.0183ZM3.71663 14.1417C4.47434 13.5063 5.41491 13.056 6.2732 12.9166C6.71527 12.8599 7.1637 12.8773 7.60006 12.968C8.14863 13.1074 8.64006 13.4206 8.89491 13.792C9.14406 14.1566 9.25148 14.4732 9.36348 15.1794C9.40691 15.4572 9.45491 15.7372 9.46863 15.8C9.55206 16.1657 9.71548 16.4583 9.91663 16.6046C10.2366 16.8377 10.7898 16.8526 11.3326 16.6423C11.389 16.6163 11.4486 16.5979 11.5098 16.5874C11.5292 16.6069 11.2561 16.7886 11.0641 16.8846C10.8363 17.0057 10.5815 17.0671 10.3235 17.0629C9.82634 17.0629 9.41377 16.8114 9.06863 16.2994C8.94205 16.0827 8.82907 15.8582 8.73034 15.6274C8.36691 14.8034 8.18749 14.5532 7.76577 14.2777C7.39777 14.0377 6.92349 13.9954 6.56691 14.1692C6.09834 14.3977 5.96806 14.992 6.30406 15.3692C6.46102 15.5312 6.66637 15.6379 6.8892 15.6732C6.9777 15.6853 7.06778 15.6782 7.15332 15.6525C7.23886 15.6267 7.31786 15.5829 7.38496 15.5239C7.45206 15.465 7.50569 15.3922 7.54221 15.3107C7.57873 15.2292 7.59729 15.1408 7.59663 15.0514C7.59663 14.8034 7.50063 14.6629 7.25948 14.5532C6.9292 14.4057 6.57606 14.5783 6.5772 14.8857C6.5772 15.0172 6.63549 15.0994 6.76806 15.16C6.85263 15.1977 6.85491 15.2 6.7852 15.1863C6.48349 15.1234 6.41263 14.7612 6.65491 14.5212C6.94749 14.2332 7.55091 14.36 7.75777 14.7543C7.84463 14.92 7.85491 15.2492 7.77948 15.448C7.60806 15.8937 7.11434 16.128 6.61149 16C6.26863 15.9132 6.13034 15.8194 5.71777 15.3977C5.0012 14.664 4.72349 14.5212 3.69034 14.3612L3.49149 14.3303L3.71663 14.1417V14.1417Z" fill="#FF007A"/>
<path fill-rule="evenodd" clip-rule="evenodd" d="M0.352639 1.01051C2.74578 3.89737 4.39492 5.08823 4.57778 5.33965C4.72864 5.54765 4.6715 5.73508 4.41321 5.88137C4.22953 5.97365 4.0296 6.02917 3.82464 6.0448C3.65664 6.0448 3.59835 5.9808 3.59835 5.9808C3.50121 5.88937 3.44635 5.90537 2.94692 5.02423C2.52232 4.36338 2.09259 3.70584 1.65778 3.05166C1.62121 3.01737 1.62235 3.01737 2.87721 5.24937C3.0795 5.71451 2.91721 5.8848 2.91721 5.95108C2.91721 6.08594 2.8795 6.1568 2.71264 6.34308C2.43378 6.65166 2.30921 6.99908 2.21892 7.71794C2.11835 8.52365 1.83492 9.0928 1.04864 10.0677C0.58921 10.6379 0.513782 10.7419 0.39721 10.9728C0.250925 11.2619 0.210925 11.4242 0.194925 11.7888C0.177782 12.1762 0.210924 12.4254 0.329782 12.7945C0.432639 13.1191 0.542353 13.3317 0.820067 13.7591C1.06007 14.1282 1.19721 14.4025 1.19721 14.5099C1.19721 14.5945 1.21321 14.5945 1.58578 14.5111C2.47264 14.3122 3.19378 13.9625 3.5995 13.5317C3.85092 13.2654 3.90921 13.1191 3.9115 12.7545C3.91264 12.5168 3.90464 12.4665 3.8395 12.3294C3.73435 12.1065 3.54235 11.9202 3.1195 11.6322C2.56407 11.2551 2.32635 10.9522 2.26235 10.5351C2.2075 10.1922 2.27035 9.95108 2.57664 9.31223C2.89435 8.64937 2.97321 8.36708 3.02692 7.7008C3.06121 7.26994 3.10807 7.09965 3.23264 6.96251C3.36292 6.8208 3.4795 6.7728 3.80178 6.72937C4.32635 6.65737 4.65892 6.52365 4.93321 6.27223C5.04315 6.18148 5.13186 6.06773 5.19307 5.93898C5.25428 5.81024 5.28652 5.66964 5.2875 5.52708L5.29892 5.28708L5.16521 5.13394C4.68407 4.57623 0.0303531 0.571655 0.000638785 0.571655C-0.0050755 0.571655 0.152639 0.76937 0.352639 1.01051ZM1.46807 12.2277C1.5205 12.1351 1.53609 12.0261 1.51173 11.9225C1.48737 11.8189 1.42485 11.7283 1.33664 11.6688C1.16521 11.5545 0.896639 11.6094 0.896639 11.7568C0.896639 11.8025 0.921782 11.8357 0.978925 11.8642C1.07492 11.9134 1.08178 11.9682 1.00635 12.0814C0.929782 12.1945 0.936639 12.2939 1.0235 12.3625C1.16407 12.4711 1.36292 12.4117 1.46807 12.2277V12.2277ZM5.62921 6.85623C5.3835 6.93051 5.14464 7.18994 5.06921 7.46194C5.02464 7.62765 5.05092 7.91908 5.11835 8.00823C5.22807 8.15337 5.33321 8.19108 5.62007 8.18994C6.18007 8.18651 6.66692 7.94765 6.72407 7.64823C6.76978 7.40365 6.55607 7.06537 6.26121 6.91566C6.06092 6.83434 5.84115 6.81367 5.62921 6.85623V6.85623ZM6.28521 7.3648C6.37092 7.24251 6.33321 7.11108 6.18578 7.02194C5.90692 6.85165 5.48292 6.99223 5.48292 7.25508C5.48292 7.38651 5.7035 7.52937 5.90578 7.52937C6.04064 7.52937 6.22578 7.44937 6.28521 7.3648Z" fill="#FF007A"/>
</g>
<defs>
<clipPath id="clip0_703_3">
<rect width="16" height="17.1429" fill="white"/>
</clipPath>
</defs>
</svg>
